<svg xmlns="http://www.w3.org/2000/svg" viewBox="0 0 980 620" width="980" font-family="Inter, ui-sans-serif, system-ui, -apple-system, 'Segoe UI', Roboto, sans-serif" role="img" aria-label="Slipway tool adapters: slipway init --tools generates per-tool adapter bundles for Claude, Codex, Copilot, Cursor, Kilo, Kiro, OpenCode, Pi, Qwen, and Windsurf, plus the .slipway.yaml runtime config; each adapter's generated skills and commands route governed actions to the slipway CLI.">
  <title>Slipway tool adapters</title>
  <defs>
    <style>
      :root{
        --text:#0f172a; --muted:#64748b; --line:#94a3b8;
        --card-fill:#ffffff; --card-border:#e2e8f0;
        --band-bg:#f8fafc; --band-border:#e2e8f0;
        --entry-fill:#fff6e6; --entry-stroke:#d98a13; --entry-pill:#d98a13;
        --plan-pill:#f2643b; --exec-pill:#475569; --verify-pill:#0e8077;
      }
      @media (prefers-color-scheme: dark){
        :root{
          --text:#e6edf3; --muted:#8b949e; --line:#475569;
          --card-fill:#161b22; --card-border:#30363d;
          --band-bg:#0d1117; --band-border:#21262d;
          --entry-fill:#3a2606; --entry-stroke:#fbbf24; --entry-pill:#d98a13;
          --plan-pill:#f2643b; --exec-pill:#64748b; --verify-pill:#0e8077;
        }
      }
      .titleBig{fill:var(--text);font-weight:700;}
      .title{fill:var(--text);font-weight:600;}
      .sub{fill:var(--muted);}
      .tag{fill:var(--muted);font-weight:700;letter-spacing:1.5px;}
      .mono{fill:var(--text);font-weight:600;font-family:ui-monospace,SFMono-Regular,'SF Mono',Menlo,Consolas,monospace;}
      .inv{fill:var(--muted);font-family:ui-monospace,SFMono-Regular,'SF Mono',Menlo,Consolas,monospace;}
      .box{fill:var(--card-fill);stroke:var(--card-border);stroke-width:1.6;}
      .cli{fill:var(--entry-fill);stroke:var(--entry-stroke);stroke-width:2.4;}
      .band{fill:var(--band-bg);stroke:var(--band-border);stroke-width:1.5;}
      .flow{stroke:var(--line);stroke-width:2;fill:none;}
      .arrowhead{fill:var(--line);}
      .edgeT{fill:var(--muted);font-style:italic;}
    </style>
    <marker id="ah" viewBox="0 0 10 10" refX="8.5" refY="5" markerWidth="7" markerHeight="7" orient="auto-start-reverse">
      <path class="arrowhead" d="M0,0 L10,5 L0,10 z"/>
    </marker>
  </defs>

  <text class="titleBig" x="40" y="40" font-size="19">Slipway &#183; tool adapters</text>
  <text class="sub" x="40" y="61" font-size="12.5">slipway init --tools writes .slipway.yaml + per-tool adapter bundles &#183; each adapter routes governed commands to the CLI</text>

  <!-- flow edges (under cards) -->
  <line class="flow" x1="490" y1="144" x2="490" y2="180" marker-end="url(#ah)"/>
  <line class="flow" x1="490" y1="456" x2="490" y2="500" marker-end="url(#ah)"/>
  <text class="edgeT" x="500" y="167" font-size="10.5">generates</text>
  <text class="edgeT" x="500" y="483" font-size="10.5">invoke</text>

  <!-- init node -->
  <rect class="box" x="350" y="86" width="280" height="58" rx="14"/>
  <text class="mono" x="490" y="114" text-anchor="middle" font-size="14">slipway init --tools</text>
  <text class="sub" x="490" y="133" text-anchor="middle" font-size="11">generate host adapter files</text>

  <!-- adapter band -->
  <rect class="band" x="40" y="180" width="900" height="276" rx="16"/>
  <text class="tag" x="60" y="204" font-size="9.5">GENERATED ADAPTER BUNDLES</text>

  <!-- card: Claude -->
  <rect class="box" x="64" y="218" width="156" height="94" rx="11"/>
  <circle cx="82" cy="242" r="4.5" fill="var(--entry-pill)"/>
  <text class="title" x="94" y="246" font-size="13">Claude Code</text>
  <text class="mono" x="80" y="274" font-size="11">.claude/</text>
  <text class="inv" x="80" y="298" font-size="10.5">/slipway:&lt;cmd&gt;</text>

  <!-- card: Codex -->
  <rect class="box" x="238" y="218" width="156" height="94" rx="11"/>
  <circle cx="256" cy="242" r="4.5" fill="var(--exec-pill)"/>
  <text class="title" x="268" y="246" font-size="13">Codex</text>
  <text class="mono" x="254" y="274" font-size="11">.codex/skills</text>
  <text class="inv" x="254" y="298" font-size="10.5">$slipway-&lt;cmd&gt;</text>

  <!-- card: Copilot -->
  <rect class="box" x="412" y="218" width="156" height="94" rx="11"/>
  <circle cx="430" cy="242" r="4.5" fill="var(--plan-pill)"/>
  <text class="title" x="442" y="246" font-size="13">Copilot</text>
  <text class="mono" x="428" y="274" font-size="11">.github/prompts</text>
  <text class="inv" x="428" y="298" font-size="10.5">/slipway-&lt;cmd&gt;</text>

  <!-- card: Cursor -->
  <rect class="box" x="586" y="218" width="156" height="94" rx="11"/>
  <circle cx="604" cy="242" r="4.5" fill="var(--entry-pill)"/>
  <text class="title" x="616" y="246" font-size="13">Cursor</text>
  <text class="mono" x="602" y="274" font-size="11">.cursor/</text>
  <text class="inv" x="602" y="298" font-size="10.5">/slipway-&lt;cmd&gt;</text>

  <!-- card: Kilo -->
  <rect class="box" x="760" y="218" width="156" height="94" rx="11"/>
  <circle cx="778" cy="242" r="4.5" fill="var(--verify-pill)"/>
  <text class="title" x="790" y="246" font-size="13">Kilo</text>
  <text class="mono" x="776" y="274" font-size="11">.kilocode/</text>
  <text class="inv" x="776" y="298" font-size="10.5">/slipway:&lt;cmd&gt;</text>

  <!-- card: Kiro -->
  <rect class="box" x="64" y="342" width="156" height="94" rx="11"/>
  <circle cx="82" cy="366" r="4.5" fill="var(--plan-pill)"/>
  <text class="title" x="94" y="370" font-size="13">Kiro</text>
  <text class="mono" x="80" y="398" font-size="11">.kiro/skills</text>
  <text class="inv" x="80" y="422" font-size="10.5">@slipway:&lt;cmd&gt;</text>

  <!-- card: OpenCode -->
  <rect class="box" x="238" y="342" width="156" height="94" rx="11"/>
  <circle cx="256" cy="366" r="4.5" fill="var(--entry-pill)"/>
  <text class="title" x="268" y="370" font-size="13">OpenCode</text>
  <text class="mono" x="254" y="398" font-size="11">.opencode/</text>
  <text class="inv" x="254" y="422" font-size="10.5">/slipway-&lt;cmd&gt;</text>

  <!-- card: Pi -->
  <rect class="box" x="412" y="342" width="156" height="94" rx="11"/>
  <circle cx="430" cy="366" r="4.5" fill="var(--exec-pill)"/>
  <text class="title" x="442" y="370" font-size="13">Pi</text>
  <text class="mono" x="428" y="398" font-size="11">.pi/</text>
  <text class="inv" x="428" y="422" font-size="10.5">/slipway-&lt;cmd&gt;</text>

  <!-- card: Qwen -->
  <rect class="box" x="586" y="342" width="156" height="94" rx="11"/>
  <circle cx="604" cy="366" r="4.5" fill="var(--verify-pill)"/>
  <text class="title" x="616" y="370" font-size="13">Qwen</text>
  <text class="mono" x="602" y="398" font-size="11">.qwen/skills</text>
  <text class="inv" x="602" y="422" font-size="10.5">/slipway-&lt;cmd&gt;</text>

  <!-- card: Windsurf -->
  <rect class="box" x="760" y="342" width="156" height="94" rx="11"/>
  <circle cx="778" cy="366" r="4.5" fill="var(--plan-pill)"/>
  <text class="title" x="790" y="370" font-size="13">Windsurf</text>
  <text class="mono" x="776" y="398" font-size="11">.windsurf/</text>
  <text class="inv" x="776" y="422" font-size="10.5">/slipway-&lt;cmd&gt;</text>

  <!-- CLI node -->
  <rect class="cli" x="350" y="500" width="280" height="64" rx="16"/>
  <text class="titleBig" x="490" y="531" text-anchor="middle" font-size="20">slipway CLI</text>
  <text class="sub" x="490" y="552" text-anchor="middle" font-size="11">lifecycle + execution authority</text>
</svg>
