<svg xmlns="http://www.w3.org/2000/svg" viewBox="0 0 1024 1024" width="1024" height="1024" role="img" aria-label="Slipway mark">
  <title>Slipway mark</title>
  <defs>
    <linearGradient id="g" x1="0" y1="0" x2="0.85" y2="1"><stop offset="0" stop-color="#ff7a59"/><stop offset="1" stop-color="#e0457e"/></linearGradient>
    <clipPath id="cc"><rect width="1024" height="1024" rx="232"/></clipPath>
  </defs>
  <g clip-path="url(#cc)">
    <rect width="1024" height="1024" fill="url(#g)"/>
    <path d="M0 772 C160 726 300 812 512 784 C712 758 856 712 1024 760 L1024 1024 L0 1024 Z" fill="#178f86"/>
    <path d="M0 772 C160 726 300 812 512 784 C712 758 856 712 1024 760" fill="none" stroke="#7fe9dd" stroke-width="22" stroke-linecap="round"/>
    <path d="M120 884 C320 836 470 920 620 896 C760 874 858 856 928 872" fill="none" stroke="#7fe9dd" stroke-width="26" stroke-linecap="round" opacity="0.65"/>
    <g transform="translate(-153.6,-141) scale(1.30)">
      <path d="M189 597 L494 708 L494 590 Z" fill="#e8a93f"/>
      <path d="M494 590 L835 545 L680 710 L494 708 Z" fill="#ffd166"/>
      <path d="M494 590 L494 708 L588 668 Z" fill="#7a4a00"/>
      <path d="M493 572 L310 536 L493 225 Z" fill="#ffe9d0"/>
      <path d="M512 572 L724 532 L512 225 Z" fill="#fff8ee"/>
    </g>
  </g>
</svg>
