<svg xmlns="http://www.w3.org/2000/svg" width="1400" height="360" viewBox="0 0 1400 360" role="img" aria-label="Slipway logo concept 2">
<g transform="translate(35 60) scale(0.92)">
<g transform="translate(0 10) scale(0.78)">
<rect x="0" y="76" width="540" height="13" rx="3" fill="#115E59"/>
<rect x="0" y="153" width="540" height="13" rx="3" fill="#115E59"/>
<rect x="8" y="113" width="16" height="16" fill="#115E59"/>
<rect x="39" y="113" width="16" height="16" fill="#115E59"/>
<rect x="70" y="113" width="16" height="16" fill="#115E59"/>
<path d="M100,36 L155,55 L155,196 L100,216 Z" fill="none" stroke="#115E59" stroke-width="14" stroke-linejoin="miter"/>
<path d="M187,36 L242,55 L242,196 L187,216 Z" fill="none" stroke="#115E59" stroke-width="14" stroke-linejoin="miter"/>
<path d="M274,36 L329,55 L329,196 L274,216 Z" fill="none" stroke="#115E59" stroke-width="14" stroke-linejoin="miter"/>
<path d="M361,36 L416,55 L416,196 L361,216 Z" fill="none" stroke="#115E59" stroke-width="14" stroke-linejoin="miter"/>
<path d="M448,36 L503,55 L503,196 L448,216 Z" fill="none" stroke="#115E59" stroke-width="14" stroke-linejoin="miter"/>
<rect x="128" y="110" width="30" height="30" rx="2" fill="#2F837C"/>
<rect x="215" y="110" width="30" height="30" rx="2" fill="#5CA6A0"/>
<rect x="302" y="110" width="30" height="30" rx="2" fill="#94A3B8"/>
<rect x="389" y="110" width="30" height="30" rx="2" fill="#475569"/>
<rect x="476" y="110" width="30" height="30" rx="2" fill="#2563EB"/>
<rect x="528" y="110" width="30" height="30" rx="2" fill="#1E293B"/>
</g>
<path d="M576.20,176.48 C609.82,176.48 630.88,159.72 630.88,133.23 C630.88,112.38 617.62,100.10 588.21,93.52 L573.83,90.20 C555.36,85.90 548.01,80.56 548.01,71.05 C548.01,59.41 559.17,51.34 574.86,51.34 C591.44,51.34 602.29,60.39 603.36,75.32 L627.25,75.32 C626.40,47.13 606.68,30.00 574.95,30.00 C543.62,30.00 522.77,46.95 522.77,72.27 C522.77,92.18 535.82,104.67 564.19,111.13 L579.43,114.58 C598.39,118.94 605.83,124.76 605.83,134.76 C605.83,147.25 594.09,155.24 576.39,155.24 C556.67,155.24 544.87,145.06 544.69,127.90 L520.00,127.90 C520.00,158.28 541.06,176.48 576.20,176.48 Z M672.51,32.29 L648.49,32.29 L648.49,174.19 L672.51,174.19 L672.51,32.29 Z M693.83,174.19 L717.84,174.19 L717.84,73.62 L693.83,73.62 L693.83,174.19 Z M705.84,58.65 C714.04,58.65 720.22,52.77 720.22,44.93 C720.22,37.22 714.04,31.31 705.84,31.31 C697.64,31.31 691.45,37.22 691.45,44.93 C691.45,52.77 697.64,58.65 705.84,58.65 Z M739.16,214.00 L763.18,214.00 L763.18,159.05 L763.46,159.05 C769.73,170.48 780.31,176.21 793.45,176.21 C819.75,176.21 836.97,155.15 836.97,123.81 C836.97,92.85 819.45,71.60 793.54,71.60 C780.49,71.60 769.37,76.94 763.06,87.60 L762.79,87.60 L762.79,73.62 L739.16,73.62 L739.16,214.00 Z M787.84,156.09 C772.11,156.09 761.84,143.44 761.84,123.81 C761.84,104.28 772.11,91.51 787.84,91.51 C802.68,91.51 812.71,103.06 812.71,123.81 C812.71,144.66 802.68,156.09 787.84,156.09 Z M875.75,174.19 L900.53,174.19 L912.90,132.29 C915.64,122.96 918.14,113.15 920.61,103.33 C923.17,113.15 925.67,122.96 928.32,132.29 L940.51,174.19 L965.48,174.19 L996.63,73.62 L971.08,73.62 L960.72,111.80 C957.55,123.72 954.63,136.46 951.76,148.96 C948.62,136.46 945.57,123.72 942.31,111.80 L931.77,73.62 L909.55,73.62 L898.88,111.80 C895.56,123.81 892.51,136.68 889.37,149.14 C886.32,136.68 883.46,123.81 880.32,111.80 L869.93,73.62 L844.69,73.62 L875.75,174.19 Z M1039.66,175.81 C1056.06,175.81 1064.53,168.95 1069.28,159.99 L1069.68,159.99 L1069.68,174.19 L1093.30,174.19 L1093.30,105.62 C1093.30,84.65 1077.76,71.60 1051.58,71.60 C1025.27,71.60 1008.91,84.86 1007.75,104.86 L1030.91,104.86 C1031.58,96.38 1039.38,90.29 1051.09,90.29 C1062.61,90.29 1069.47,96.38 1069.47,104.95 L1069.47,105.71 C1069.47,112.57 1063.10,112.84 1044.44,114.94 C1023.66,117.14 1004.91,122.75 1004.91,145.61 C1004.91,165.72 1019.66,175.81 1039.66,175.81 Z M1045.57,158.01 C1035.09,158.01 1028.32,153.35 1028.32,145.42 C1028.32,136.28 1037.10,132.56 1047.37,131.04 C1057.27,129.51 1066.63,127.99 1069.59,126.10 L1069.59,136.95 C1069.59,148.65 1061.30,158.01 1045.57,158.01 Z M1116.33,214.00 L1132.05,214.00 C1146.62,214.00 1156.53,206.47 1162.53,190.78 L1207.49,73.62 L1182.34,73.62 L1163.97,126.01 C1161.41,133.41 1159.00,140.85 1156.71,148.29 C1154.43,140.85 1151.96,133.41 1149.49,126.01 L1131.02,73.62 L1105.57,73.62 L1144.34,173.62 L1140.62,183.34 C1137.78,191.23 1134.74,194.49 1128.24,194.49 L1116.33,194.49 L1116.33,214.00 Z" fill="#1F2937"/>
</g>
</svg>